<mxfile host="app.diagrams.net" modified="2024-04-06T12:59:35.973Z" agent="Mozilla/5.0 (Macintosh; Intel Mac OS X 10_15_7) AppleWebKit/537.36 (KHTML, like Gecko) Chrome/123.0.0.0 Safari/537.36" version="24.2.2" etag="-03F5QqL_8FsAiKi1WZw" type="github">
  <diagram name="Page-1" id="j9euXFPb_hl1PkJ8tp7Y">
    <mxGraphModel>
      <root>
        <mxCell id="0" />
        <mxCell id="1" parent="0" />
      </root>
    </mxGraphModel>
  </diagram>
</mxfile>
